<?xml version="1.0" standalone="no"?>
<!DOCTYPE svg PUBLIC "-//W3C//DTD SVG 20010904//EN"
 "http://www.w3.org/TR/2001/REC-SVG-20010904/DTD/svg10.dtd">
<svg version="1.0" xmlns="http://www.w3.org/2000/svg"
 width="512.000000pt" height="512.000000pt" viewBox="0 0 512.000000 512.000000"
 preserveAspectRatio="xMidYMid meet">
<metadata>
Created by potrace 1.11, written by Peter Selinger 2001-2013
</metadata>
<g transform="translate(0.000000,512.000000) scale(0.100000,-0.100000)"
fill="#000000" stroke="none">
<path d="M2264 5105 c-99 -24 -178 -81 -299 -216 -186 -206 -238 -415 -135
-533 22 -24 29 -42 28 -72 -1 -83 72 -170 211 -253 112 -66 201 -92 313 -92
86 0 168 22 298 78 60 27 119 46 139 46 40 -1 90 -46 117 -104 17 -39 17 -44
-5 -187 -12 -81 -28 -208 -36 -282 -8 -74 -17 -151 -19 -170 -13 -105 -21
-315 -20 -550 1 -250 8 -345 40 -497 l6 -32 -100 34 c-55 19 -122 37 -148 41
-27 3 -52 8 -57 11 -4 2 -67 4 -140 4 -139 0 -257 -18 -392 -61 -83 -26 -251
-106 -316 -149 l-47 -32 -50 20 c-107 43 -299 54 -449 28 -69 -13 -73 -12 -73
6 0 10 -13 32 -29 48 l-29 29 -132 0 c-142 0 -182 -11 -196 -52 -12 -36 -11
-2074 1 -2111 18 -57 11 -57 612 -57 l552 0 25 23 c16 13 27 35 30 56 3 34 6
36 102 77 125 52 199 95 338 193 l111 78 145 6 c80 3 156 8 170 11 14 3 60 10
102 16 91 13 246 56 338 94 180 74 334 196 435 347 l45 67 37 -9 c40 -9 219
-6 264 5 196 45 316 185 333 391 6 73 -14 175 -47 241 -24 48 -25 55 -26 279
0 127 -3 246 -5 265 -3 19 -8 64 -11 100 -12 130 -14 147 -30 250 -72 457
-223 966 -423 1415 -89 201 -163 349 -300 600 -6 11 -20 46 -32 77 -33 86 -85
138 -218 216 -277 164 -486 255 -687 298 -93 21 -276 26 -341 9z"/>
</g>
</svg>
