<svg height="512pt" viewBox="0 0 512.00023 512" width="512pt" xmlns="http://www.w3.org/2000/svg"><path d="m503.464844 44.375v16.828125c.003906 4.097656-2.910156 7.621094-6.9375 8.386719l-10.128906 1.917968-42.304688 17.382813-34.492188-3.046875v-27.519531c-.003906-4.121094 2.945313-7.65625 7.003907-8.394531l76.800781-13.96875c2.492188-.453126 5.058594.222656 7 1.847656 1.945312 1.625 3.066406 4.03125 3.058594 6.566406zm0 0" fill="#ffeb3a"/><path d="m358.398438 109.226562v189.441407l-102.398438 37.375-12.800781-4.695313-89.597657-32.679687v-189.441407zm0 0" fill="#bfa885"/><path d="m332.800781 109.226562v189.441407l-89.601562 32.679687-89.597657-32.679687v-189.441407zm0 0" fill="#ffe0b2"/><path d="m375.296875 342.015625-4.097656 94.789063c-10.835938-10.992188-38.824219-44.269532-55.464844-44.269532-33.023437 0-59.734375 62.972656-59.734375 96 0-33.027344-26.710938-96-59.734375-96-16.640625 0-44.628906 31.128906-55.464844 42.136719l-4.097656-92.65625 9.898437-2.390625c8.148438-1.988281 15.535157-6.316406 21.25-12.457031l62.546876-18.175781 2.730468 1.367187c14.40625 7.167969 31.335938 7.167969 45.742188 0l2.730468-1.367187 62.546876 18.175781c5.714843 6.140625 13.101562 10.46875 21.25 12.457031l1.023437.257812zm0 0" fill="#607d8b"/><path d="m115.199219 443.734375-12.800781 59.730469h-85.332032c-4.710937 0-8.53125-3.820313-8.53125-8.53125v-74.921875c-.003906-27.589844 18.910156-51.585938 45.738282-58.027344l30.292968-7.339844zm0 0" fill="#607d8b"/><path d="m503.464844 420.011719v74.921875c0 4.710937-3.820313 8.53125-8.53125 8.53125h-85.332032l-8.535156-59.730469 24.660156-83.285156 1.707032-5.804688 30.292968 7.339844c26.828126 6.441406 45.742188 30.4375 45.738282 58.027344zm0 0" fill="#37474f"/><path d="m427.433594 354.644531-17.832032 89.089844v59.730469h-307.203124v-59.730469l-17.832032-89.089844 52.136719-12.628906 17.066406 68.265625c17.027344-17.234375 42.777344-22.480469 65.191407-13.277344 22.410156 9.207032 37.042968 31.035156 37.039062 55.261719-.003906-24.226563 14.628906-46.054687 37.042969-55.261719 22.410156-9.203125 48.160156-3.957031 65.1875 13.277344l17.066406-68.265625 41.640625 10.070313zm0 0" fill="#f44335"/><path d="m230.398438 295.152344v49.441406c0 2.957031-1.53125 5.699219-4.046876 7.253906-2.515624 1.554688-5.65625 1.695313-8.300781.375l-38.851562-19.421875-26.539063-13.226562-16.125-8.109375-20.882812-10.441406c-2.890625-1.445313-4.71875-4.398438-4.71875-7.628907v-26.847656c0-1.324219.308594-2.628906.90625-3.8125l6.722656-13.46875c.59375-1.179687.90625-2.488281.902344-3.8125v-96.121094h34.136718v89.601563c-.023437 3.007812.265626 6.011718.851563 8.960937l71.5625 39.796875c2.707031 1.507813 4.382813 4.363282 4.382813 7.460938zm0 0" fill="#fec108"/><path d="m401.066406 266.582031v26.792969c.023438 3.246094-1.796875 6.222656-4.691406 7.679688l-20.910156 10.410156-16.125 8.109375-26.539063 13.226562-38.828125 19.457031c-2.488281 1.242188-5.429687 1.191407-7.875-.132812-2.445312-1.324219-4.09375-3.761719-4.414062-6.523438-.070313-.339843-.097656-.683593-.082032-1.027343v-49.40625c.023438-3.09375 1.675782-5.949219 4.351563-7.507813l71.59375-39.765625c.585937-2.949219.875-5.953125.851563-8.960937v-89.601563h34.136718v96.085938c.007813 1.335937.328125 2.652343.9375 3.839843l6.65625 13.484376c.609375 1.1875.929688 2.503906.9375 3.839843zm0 0" fill="#ff9801"/><path d="m102.398438 58.324219v27.519531l-36.625 8.023438-40.171876-22.359376-10.128906-1.917968c-4.027344-.765625-6.941406-4.289063-6.9375-8.386719v-16.828125c-.003906-2.53125 1.121094-4.933594 3.0625-6.554688 1.945313-1.621093 4.507813-2.296874 6.996094-1.84375l76.800781 13.96875c4.050781.738282 6.996094 4.261719 7.003907 8.378907zm0 0" fill="#ffeb3a"/><path d="m154.28125 93.867188c-.511719 2.730468 9.277344 4.265624 9.277344 7.132812l-9.957032 27-46.933593 2.492188-46.933594-21.265626-27.308594-5.453124c-3.976562-.8125-6.832031-4.3125-6.824219-8.371094v-23.894532l76.796876 14.335938 42.667968 8.023438zm0 0" fill="#fdd834"/><path d="m452.265625 109.226562v28.714844c0 4.125-2.945313 7.660156-7.003906 8.398438l-86.863281 15.792968v-45.15625zm0 0" fill="#ffeb3a"/><path d="m486.398438 71.507812v23.894532c.007812 4.058594-2.847657 7.558594-6.824219 8.371094l-27.308594 5.453124-93.867187 18.773438-6.757813-27c0-2.902344 6.589844-4.402344 6.078125-7.132812h9.214844l42.667968-8.023438zm0 0" fill="#fdd834"/><path d="m256 452.265625c.03125 20.988281-10.992188 40.441406-29.011719 51.199219h-61.441406c-24.757813-14.84375-35.355469-45.269532-25.179687-72.285156 10.179687-27.011719 38.214843-42.882813 66.617187-37.707032 28.398437 5.179688 49.03125 29.925782 49.015625 58.792969zm0 0" fill="#795548"/><path d="m221.867188 452.265625c0 14.140625-11.460938 25.601563-25.601563 25.601563-14.136719 0-25.597656-11.460938-25.597656-25.601563 0-14.136719 11.460937-25.597656 25.597656-25.597656 14.140625 0 25.601563 11.460937 25.601563 25.597656zm0 0" fill="#4e342e"/><path d="m375.464844 452.265625c.03125 20.988281-10.992188 40.441406-29.011719 51.199219h-61.441406c-24.753907-14.84375-35.351563-45.269532-25.175781-72.285156 10.175781-27.011719 38.214843-42.882813 66.613281-37.707032 28.398437 5.179688 49.03125 29.925782 49.015625 58.792969zm0 0" fill="#795548"/><path d="m341.332031 452.265625c0 14.140625-11.460937 25.601563-25.597656 25.601563-14.140625 0-25.601563-11.460938-25.601563-25.601563 0-14.136719 11.460938-25.597656 25.601563-25.597656 14.136719 0 25.597656 11.460937 25.597656 25.597656zm0 0" fill="#4e342e"/><path d="m153.601562 128v34.132812l-86.863281-15.792968c-4.054687-.738282-7.003906-4.273438-7.003906-8.398438v-28.714844zm0 0" fill="#ffeb3a"/><path d="m358.398438 102.398438v25.601562h-80.765626c-2.851562 0-5.515624 1.425781-7.101562 3.796875l-7.429688 11.152344c-1.585937 2.375-4.25 3.800781-7.101562 3.800781s-5.515625-1.425781-7.101562-3.800781l-7.40625-11.152344c-1.585938-2.378906-4.261719-3.804687-7.125-3.796875h-80.765626v-25.601562c-.035156-2.859376.191407-5.714844.679688-8.53125l99.585938-24.890626 103.851562 24.890626c.488281 2.816406.714844 5.671874.679688 8.53125zm0 0" fill="#cfd8dc"/><path d="m366.933594 93.867188h-221.867188c0-47.128907 38.207032-85.332032 85.332032-85.332032h51.203124c47.125 0 85.332032 38.203125 85.332032 85.332032zm0 0" fill="#37474f"/><path d="m477.867188 420.011719v74.921875c0 4.710937-3.820313 8.53125-8.535157 8.53125h-59.730469l-8.535156-59.730469 24.660156-83.285156 6.402344 1.535156c26.828125 6.441406 45.738282 30.4375 45.738282 58.027344zm0 0" fill="#607d8b"/><path d="m375.464844 266.582031v26.792969c.023437 3.246094-1.792969 6.222656-4.691406 7.679688l-20.90625 10.410156-16.128907 8.109375-26.539062 13.226562-25.515625 12.800781c-.070313-.339843-.097656-.683593-.082032-1.027343v-49.40625c.023438-3.09375 1.675782-5.949219 4.351563-7.507813l71.59375-39.765625c.585937-2.949219.875-5.953125.851563-8.960937v-89.601563h8.535156v96.085938c.007812 1.335937.328125 2.652343.9375 3.839843l6.65625 13.484376c.609375 1.1875.929687 2.503906.9375 3.839843zm0 0" fill="#fec108"/><path d="m341.332031 93.867188h-196.265625c0-47.128907 38.207032-85.332032 85.332032-85.332032h25.601562c47.128906 0 85.332031 38.203125 85.332031 85.332032zm0 0" fill="#607d8b"/><path d="m501.9375 25.738281-93.863281 17.066407c-4.058594.738281-7.007813 4.269531-7.007813 8.394531v27.582031l-26.179687 4.914062c-5.238281-47.585937-45.414063-83.6289058-93.285157-83.695312h-51.203124c-47.871094.0664062-88.046876 36.109375-93.285157 83.695312l-26.179687-4.914062v-27.582031c0-4.125-2.949219-7.65625-7.007813-8.394531l-93.863281-17.066407c-2.492188-.453125-5.054688.222657-6.996094 1.84375-1.945312 1.621094-3.066406 4.019531-3.066406 6.550781v34.132813c0 4.105469 2.921875 7.628906 6.953125 8.390625l10.113281 1.894531v23.847657c0 4.058593 2.851563 7.554687 6.828125 8.363281l27.902344 5.582031c-.394531.992188-.597656 2.054688-.597656 3.121094v25.601562c0 4.125 2.949219 7.660156 7.007812 8.398438l52.726563 9.582031v82.40625l-7.636719 15.265625c-.589844 1.183594-.898437 2.492188-.898437 3.816406v34.132813c-.015626 3.25 1.8125 6.226562 4.71875 7.679687l44.632812 22.3125c-2.28125 1.171875-4.679688 2.082032-7.160156 2.714844l-6.613282 1.605469c-1.164062-.210938-2.359374-.171875-3.507812.117187-1.117188.28125-2.164062.78125-3.082031 1.476563l-79.113281 19.117187c-30.691407 7.3125-52.3281255 34.765625-52.273438 66.320313v74.921875c0 9.425781 7.640625 17.066406 17.066406 17.066406h477.867188c9.425781 0 17.066406-7.640625 17.066406-17.066406v-74.921875c.058594-31.546875-21.570312-59-52.257812-66.320313l-79.15625-19.183594c-.914063-.695312-1.964844-1.199218-3.078126-1.476562-1.152343-.289062-2.351562-.332031-3.515624-.121094l-6.589844-1.59375c-2.484375-.640625-4.890625-1.554687-7.175782-2.722656l44.628907-22.316406c2.894531-1.433594 4.730469-4.378906 4.746093-7.609375v-34.132813c.011719-1.320312-.277343-2.628906-.855468-3.816406l-7.679688-15.265625v-82.40625l52.726563-9.582031c4.058593-.738282 7.007812-4.273438 7.007812-8.398438v-25.601562c-.011719-1.070313-.226562-2.128906-.632812-3.121094l27.90625-5.582031c3.984375-.796875 6.855469-4.296875 6.859375-8.363281v-23.847657l10.113281-1.894531c4.03125-.761719 6.953125-4.285156 6.953125-8.390625v-34.132813c0-2.53125-1.121094-4.929687-3.066406-6.550781-1.941406-1.621093-4.503906-2.296875-6.996094-1.84375zm-263.003906 272.023438c6.171875-.933594 12.027344-3.351563 17.066406-7.039063 4.882812 4.003906 10.800781 6.539063 17.066406 7.304688v5.539062c-10.890625 4.707032-23.242187 4.707032-34.132812 0zm40.679687-16.28125c-13.65625-.632813-14.996093-7.253907-15.078125-8.414063 0-4.710937-3.820312-8.53125-8.535156-8.53125-4.710938 0-8.535156 3.820313-8.535156 8.53125 0 6.433594-10.664063 8.011719-15.101563 8.398438l-27.820312-15.457032c5.324219-3.691406 10.285156-7.882812 14.824219-12.507812 13.039062-13.03125 33.765624-6.527344 33.96875-6.460938.34375.066407.6875.109376 1.035156.128907.519531.109375 1.046875.171875 1.578125.1875.613281-.007813 1.21875-.078125 1.816406-.214844.304687-.011719.605469-.046875.90625-.101563.195313-.066406 20.921875-6.570312 33.960937 6.460938 4.539063 4.625 9.5 8.816406 14.824219 12.507812zm45.667969-25.378907c-.109375 0-.203125-.066406-.324219-.066406-.117187 0-6.894531-1.230468-20.257812-14.601562-13.1875-11.933594-31.59375-16.226563-48.699219-11.347656-17.105469-4.875-35.511719-.585938-48.699219 11.347656-5.347656 6.261718-12.035156 11.238281-19.566406 14.566406-.289063.042969-.574219.101562-.855469.179688l-24.402344-13.542969c-.113281-1.21875-.34375-2.355469-.34375-3.703125v-102.398438h72.234376l14.507812 21.800782c1.582031 2.375 4.246094 3.800781 7.097656 3.800781 2.855469 0 5.519532-1.425781 7.101563-3.800781l14.558593-21.800782h72.234376v102.398438c0 1.347656-.230469 2.484375-.339844 3.703125zm24.585938-153.703124v17.066406h-76.800782c-2.851562 0-5.515625 1.425781-7.097656 3.800781l-9.96875 14.972656-9.96875-14.949219c-1.574219-2.382812-4.242188-3.816406-7.097656-3.824218h-76.800782v-17.066406zm-119.46875-85.332032h51.203124c39.09375.046875 71.929688 29.417969 76.320313 68.265625h-203.84375c4.390625-38.847656 37.226563-68.21875 76.320313-68.265625zm-213.332032 27.308594 76.800782 13.957031v17.246094l-76.800782-14.394531zm17.066406 37.375 109.355469 20.480469c.519531.105469 1.046875.164062 1.578125.167969v15.191406l-110.933594-22.1875zm34.132813 37.886719 76.800781 15.359375v16.898437l-76.800781-13.945312zm51.199219 146.910156 7.640625-15.265625c.589843-1.183594.894531-2.492188.894531-3.816406v-81.3125l17.066406 3.105468v69.675782c.007813 2.171875.144532 4.339844.402344 6.492187-.992188 3.707031.648438 7.617188 3.992188 9.5l72.40625 40.226563v49.441406l-25.601563-12.800781v-24.59375c0-4.710938-3.820313-8.53125-8.53125-8.53125-4.714844 0-8.535156 3.820312-8.535156 8.53125v16.0625l-25.597657-12.800781v-28.859376c0-4.714843-3.820312-8.535156-8.535156-8.535156-4.710937 0-8.53125 3.820313-8.53125 8.535156v20.324219l-17.070312-8.53125zm18.972656 149.617187-2.160156-8.636718c-1.171875-4.542969-5.789063-7.285156-10.335938-6.144532-4.546875 1.136719-7.324218 5.734376-6.21875 10.289063l8.535156 34.136719c0 .050781.050782.082031.066407.136718-.195313 2.054688-.324219 4.1875-.324219 6.320313.066406 15.535156 5.414062 30.582031 15.171875 42.667969h-32.238281v-51.199219c0-.574219-.058594-1.144531-.171875-1.707031l-16.210938-81.066406 35.925781-8.695313 13.917969 55.6875c-2.1875 2.585937-4.179687 5.328125-5.957031 8.210937zm-121.371094 3.847657c-.035156-23.675781 16.21875-44.265625 39.253906-49.734375l21.664063-5.253906 15.882813 79.5625v50.347656h-76.800782zm150.9375 74.921875c-14.390625-9.410156-23.023437-25.472656-22.9375-42.667969 0-28.277344 22.921875-51.199219 51.199219-51.199219s51.199219 22.921875 51.199219 51.199219c.089844 17.191406-8.542969 33.253906-22.925782 42.667969zm87.996094-9.820313c1.925781 3.457031 4.148438 6.742188 6.640625 9.820313h-13.28125c2.492187-3.078125 4.714844-6.363282 6.640625-9.820313zm31.472656 9.820313c-14.390625-9.410156-23.027344-25.472656-22.9375-42.667969 0-28.277344 22.921875-51.199219 51.199219-51.199219s51.199219 22.921875 51.199219 51.199219c.089844 17.191406-8.542969 33.253906-22.929688 42.667969zm129.96875-133.921875-16.210937 81.066406c-.109375.546875-.164063 1.097656-.164063 1.65625v51.199219h-32.238281c9.757813-12.085938 15.109375-27.132813 15.171875-42.667969 0-2.132813-.128906-4.265625-.324219-6.320313 0-.054687.050781-.085937.066407-.136718l8.535156-34.136719c1.105468-4.554687-1.667969-9.152344-6.21875-10.289063-4.546875-1.140624-9.164063 1.601563-10.335938 6.144532l-2.160156 8.636718c-1.785156-2.867187-3.78125-5.597656-5.972656-8.167968l13.917968-55.6875zm77.492188 59v74.921875h-76.800782v-50.347656l15.90625-79.546876 21.683594 5.246094c23.015625 5.488282 39.242188 26.066406 39.210938 49.726563zm-131.617188-72.109375 1.621094.386718-11.742188 46.976563c-15.871093-10.476563-35.398437-13.839844-53.859374-9.273437-18.460938 4.5625-34.175782 16.636718-43.335938 33.300781-9.160156-16.664063-24.875-28.738281-43.335938-33.300781-18.457031-4.566407-37.988281-1.203126-53.859374 9.273437l-11.742188-46.976563 1.5625-.375c7.617188-1.875 14.699219-5.46875 20.710938-10.507812l57.25 28.675781c2.652343 1.324219 5.804687 1.175781 8.320312-.390625 2.519531-1.566406 4.042969-4.324218 4.027344-7.292968v-36.691407c11.121094 3.414063 23.011718 3.414063 34.132812 0v36.691407c-.015625 2.96875 1.507813 5.726562 4.027344 7.292968 2.515625 1.566406 5.667969 1.714844 8.320312.390625l57.25-28.632812c6 5.011719 13.0625 8.589843 20.652344 10.453125zm21.578125-96.621094 7.679688 15.265625v26.847656l-17.066407 8.53125v-20.324219c0-4.714843-3.820312-8.535156-8.53125-8.535156-4.714843 0-8.535156 3.820313-8.535156 8.535156v28.859376l-25.597656 12.800781v-16.0625c0-4.710938-3.820312-8.53125-8.535156-8.53125-4.710938 0-8.53125 3.820312-8.53125 8.53125v24.59375l-25.601563 12.800781v-49.441406l72.40625-40.226563c3.34375-1.882812 4.984375-5.792969 3.992188-9.5.246093-2.15625.363281-4.324219.359375-6.492187v-69.675782l17.066406-3.105468v81.3125c0 1.324218.304688 2.632812.894531 3.816406zm58.839844-113.332031-76.800781 13.945312v-16.898437l76.800781-15.359375zm34.132813-42.546875-110.933594 22.1875v-15.191406c.527344.003906 1.050781-.046876 1.570312-.144532l109.363282-20.503906zm17.066406-34.21875-76.800782 14.394531v-17.261719l76.800782-13.941406zm0 0"/><path d="m221.867188 162.132812h-34.132813c-4.714844 0-8.535156 3.820313-8.535156 8.535157 0 4.710937 3.820312 8.53125 8.535156 8.53125h8.53125v8.535156c0 4.710937 3.820313 8.53125 8.535156 8.53125 4.710938 0 8.53125-3.820313 8.53125-8.53125v-8.535156h8.535157c4.710937 0 8.53125-3.820313 8.53125-8.53125 0-4.714844-3.820313-8.535157-8.53125-8.535157zm0 0"/><path d="m324.265625 162.132812h-34.132813c-4.710937 0-8.53125 3.820313-8.53125 8.535157 0 4.710937 3.820313 8.53125 8.53125 8.53125h8.535157v8.535156c0 4.710937 3.820312 8.53125 8.53125 8.53125 4.714843 0 8.535156-3.820313 8.535156-8.53125v-8.535156h8.53125c4.714844 0 8.535156-3.820313 8.535156-8.53125 0-4.714844-3.820312-8.535157-8.535156-8.535157zm0 0"/><path d="m196.265625 418.132812c-18.851563 0-34.132813 15.28125-34.132813 34.132813s15.28125 34.132813 34.132813 34.132813 34.132813-15.28125 34.132813-34.132813-15.28125-34.132813-34.132813-34.132813zm0 51.199219c-9.425781 0-17.066406-7.640625-17.066406-17.066406s7.640625-17.066406 17.066406-17.066406 17.066406 7.640625 17.066406 17.066406-7.640625 17.066406-17.066406 17.066406zm0 0"/><path d="m315.734375 418.132812c-18.851563 0-34.132813 15.28125-34.132813 34.132813s15.28125 34.132813 34.132813 34.132813 34.132813-15.28125 34.132813-34.132813-15.28125-34.132813-34.132813-34.132813zm0 51.199219c-9.425781 0-17.066406-7.640625-17.066406-17.066406s7.640625-17.066406 17.066406-17.066406 17.066406 7.640625 17.066406 17.066406-7.640625 17.066406-17.066406 17.066406zm0 0"/></svg>